<svg
   xmlns:dc="http://purl.org/dc/elements/1.1/"
   xmlns:cc="http://creativecommons.org/ns#"
   xmlns:rdf="http://www.w3.org/1999/02/22-rdf-syntax-ns#"
   xmlns:svg="http://www.w3.org/2000/svg"
   xmlns="http://www.w3.org/2000/svg"
   id="svg8"
   version="1.1"
   viewBox="0 0 128.14226 128.14197"
   height="128.14197mm"
   width="128.14226mm">
  <defs
     id="defs2" />
  <metadata
     id="metadata5">
    <rdf:RDF>
      <cc:Work
         rdf:about="">
        <dc:format>image/svg+xml</dc:format>
        <dc:type
           rdf:resource="http://purl.org/dc/dcmitype/StillImage" />
        <dc:title></dc:title>
      </cc:Work>
    </rdf:RDF>
  </metadata>
  <g
     transform="translate(-0.27076226,-0.22269726)"
     id="layer1">
    <path
       id="path4726"
       d="M 0.31572076,65.570018 A 64.07134,64.07134 0 0 0 33.072888,120.18302 c 10.489345,-14.06319 28.675071,-38.523545 28.736201,-38.682805 0.003,-0.008 0.002,-0.0233 0,-0.0419 0.107957,0.115277 0.196957,0.0832 0.321937,-0.0475 0.424867,-0.44447 6.009057,-7.966975 5.952057,-8.018075 -0.14511,-0.1301 -9.344249,-1.091334 -10.102683,-1.063494 -0.0953,-0.0245 -2.313628,-0.29309 -5.076682,-0.613907 -3.692769,-0.428777 -4.733155,-0.542417 -5.151623,-0.436147 0.04202,-0.0618 0.146828,-0.2078 0.144177,-0.20981 -0.08769,-0.0664 -30.329902,-3.546839 -47.58055124,-5.499367 z"
       style="fill:#92c654;fill-opacity:1;stroke:#fec226;stroke-width:0;stroke-linecap:square;stroke-linejoin:miter;stroke-miterlimit:4;stroke-dasharray:none;stroke-dashoffset:0;stroke-opacity:1;paint-order:fill markers stroke" />
    <path
       id="path4732"
       d="m 73.89045,66.044405 c -0.0336,-0.0346 -1.880041,2.164118 -4.103086,4.88597 -0.911987,1.116624 -1.707621,2.104778 -2.375548,2.942445 -0.0382,-0.001 -0.0844,-0.004 -0.0868,-5.3e-4 -0.660357,0.816204 -5.612957,7.596058 -5.683857,7.780875 -1.9e-4,5.3e-4 0.003,0.008 0.003,0.008 -1.743021,2.167628 -18.881596,24.954795 -28.868487,38.339155 a 64.07134,64.07134 0 0 0 31.566502,8.36435 64.07134,64.07134 0 0 0 32.320837,-8.83926 C 91.062481,106.18729 80.314744,80.604011 78.91794,77.294009 c 0.003,-2.6e-4 0.0389,0.003 0.0398,0.002 0.0754,-0.0493 -4.885003,-11.064877 -5.06685,-11.251964 z"
       style="fill:#4e5da9;fill-opacity:1;stroke:#fec226;stroke-width:0;stroke-linecap:square;stroke-linejoin:miter;stroke-miterlimit:4;stroke-dasharray:none;stroke-dashoffset:0;stroke-opacity:1;paint-order:fill markers stroke" />
    <path
       id="path4738"
       d="m 70.060731,57.530243 c -0.0811,-10e-4 -0.1278,0.002 -0.13643,0.01 -0.069,0.0612 0.866137,2.221158 2.077898,4.800203 1.211764,2.579045 2.272688,4.668063 2.357988,4.642063 0.006,-0.002 0.0297,-0.0252 0.0403,-0.0326 0.16998,0.759837 3.934286,9.482136 4.221936,9.756456 5.3e-4,5.3e-4 0.0469,0.005 0.0506,0.006 1.306701,3.268469 5.578957,13.550262 10.70575,25.745055 3.865086,9.19371 5.09173,12.11165 7.196418,17.11834 a 64.07134,64.07134 0 0 0 31.837829,-55.282196 64.07134,64.07134 0 0 0 -0.0238,-0.671787 c -16.81228,-1.796518 -47.587179,-5.04472 -47.868799,-5.03739 -0.005,1.1e-4 -0.0203,0.0153 -0.0289,0.0207 -0.842244,-0.0846 -2.602995,-0.27668 -4.98726,-0.550347 -2.624895,-0.30129 -4.875713,-0.516527 -5.44356,-0.524517 z"
       style="fill:#5d84c3;fill-opacity:1;stroke:#fec226;stroke-width:0;stroke-linecap:square;stroke-linejoin:miter;stroke-miterlimit:4;stroke-dasharray:none;stroke-dashoffset:0;stroke-opacity:1;paint-order:fill markers stroke" />
    <path
       id="path4744"
       d="M 95.10919,8.0971482 C 84.029703,22.778968 64.955421,48.238974 64.961841,48.412504 c 2.7e-4,0.008 0.0186,0.0511 0.0315,0.0837 -0.685397,0.827074 -1.550701,1.918348 -2.489758,3.154312 -2.082268,2.740675 -3.741829,5.03097 -3.688129,5.08907 0.0538,0.0582 2.514098,0.35852 5.46785,0.667657 4.526303,0.473667 6.399044,0.627427 7.022791,0.516247 0.963324,0.10138 2.234088,0.22787 3.643169,0.359657 2.900862,0.27131 5.525417,0.472717 5.832687,0.447517 0.0516,-0.004 0.15091,-0.0785 0.281117,-0.196887 -0.0257,0.11547 0.009,0.1581 0.0806,0.16537 0.27975,0.0282 13.293045,1.474781 28.918542,3.214249 7.07762,0.787897 13.25834,1.468894 18.33842,2.025191 a 64.07134,64.07134 0 0 0 -9.38341,-32.93639 c -0.3428,-0.565274 -0.71807,-1.184314 -1.0449,-1.722892 A 64.07134,64.07134 0 0 0 95.10915,8.0971382 Z"
       style="fill:#de5144;fill-opacity:1;stroke:#fec226;stroke-width:0;stroke-linecap:square;stroke-linejoin:miter;stroke-miterlimit:4;stroke-dasharray:none;stroke-dashoffset:0;stroke-opacity:1;paint-order:fill markers stroke" />
    <path
       id="path4758"
       d="M 64.341734,0.22269776 A 64.07134,64.07134 0 0 0 30.782072,9.7730123 C 37.633357,25.458695 49.491313,52.56306 49.578339,52.71867 c -0.09188,-0.004 -0.150577,-0.003 -0.158128,0.004 -0.05445,0.049 0.947642,2.250008 2.227252,4.891143 1.279607,2.641145 2.378107,4.797453 2.441197,4.792453 0.0631,-0.005 1.640412,-1.876551 3.505203,-4.158389 2.152138,-2.633445 2.928192,-3.602979 3.068012,-3.994046 0.591787,-0.529937 5.584547,-7.313278 5.899347,-8.017035 0.001,0.002 0.0168,0.0375 0.0171,0.0372 0.0297,-0.0292 7.994795,-10.595381 17.700098,-23.480222 L 95.272527,8.1972502 A 64.07134,64.07134 0 0 0 64.341764,0.22305776 Z"
       style="fill:#f47b34;fill-opacity:1;stroke:#fec226;stroke-width:0;stroke-linecap:square;stroke-linejoin:miter;stroke-miterlimit:4;stroke-dasharray:none;stroke-dashoffset:0;stroke-opacity:1;paint-order:fill markers stroke" />
    <path
       id="path4764"
       d="M 30.809978,9.7569923 A 64.07134,64.07134 0 0 0 0.27076276,64.293614 a 64.07134,64.07134 0 0 0 0.05684,1.601441 C 5.20626,66.471752 10.913266,67.141239 17.392706,67.893373 c 16.125036,1.871791 29.613216,3.408282 29.973362,3.415272 0.199054,0.004 0.344249,-0.003 0.539504,-0.13539 1.465675,0.16764 1.833956,0.21385 3.72432,0.427367 4.40134,0.497047 8.134559,0.920414 8.296116,0.941014 0.36974,0.0471 0.463447,0.20667 -3.170852,-5.394467 -1.125464,-1.734561 -2.110335,-3.196012 -2.690788,-4.011099 l 0.04599,-0.062 -2.263428,-5.17536 c -1.244955,-2.846675 -2.27824,-5.19075 -2.296501,-5.20895 -5.29e-4,-5.3e-4 -0.04129,-0.006 -0.04392,-0.007 -0.07697,-0.28348 -0.418706,-1.138854 -0.869198,-2.162138 C 48.082385,49.260378 42.805107,37.180866 36.91038,23.677586 34.60854,18.404681 32.575497,13.76998 30.809978,9.7569893 Z"
       style="fill:#fec226;fill-opacity:1;stroke:#fec226;stroke-width:0;stroke-linecap:square;stroke-linejoin:miter;stroke-miterlimit:4;stroke-dasharray:none;stroke-dashoffset:0;stroke-opacity:1;paint-order:fill markers stroke" />
    <circle
       r="59.307106"
       cy="64.387428"
       cx="64.248489"
       id="path4766"
       style="fill:none;fill-opacity:1;stroke:#000000;stroke-width:0.2;stroke-linecap:square;stroke-linejoin:miter;stroke-miterlimit:4;stroke-dasharray:none;stroke-dashoffset:0;stroke-opacity:0;paint-order:fill markers stroke" />
  </g>
  <g
     transform="translate(-0.27076226,-0.22269726)"
     id="layer2">
    <rect
       ry="4.7428679"
       rx="5.0671897"
       y="50.746307"
       x="45.352028"
       height="29.182152"
       width="37.258007"
       id="rect4800"
       style="fill:#5d84c3;fill-opacity:1;stroke:#5d84c3;stroke-width:0.2451174;stroke-linecap:square;stroke-linejoin:round;stroke-miterlimit:4;stroke-dasharray:none;stroke-dashoffset:0;stroke-opacity:1;paint-order:fill markers stroke" />
  </g>
</svg>