<?xml version="1.0" encoding="UTF-8" standalone="no"?>
<svg
   xmlns:dc="http://purl.org/dc/elements/1.1/"
   xmlns:cc="http://creativecommons.org/ns#"
   xmlns:rdf="http://www.w3.org/1999/02/22-rdf-syntax-ns#"
   xmlns:svg="http://www.w3.org/2000/svg"
   xmlns="http://www.w3.org/2000/svg"
   xmlns:xlink="http://www.w3.org/1999/xlink"
   xmlns:sodipodi="http://sodipodi.sourceforge.net/DTD/sodipodi-0.dtd"
   xmlns:inkscape="http://www.inkscape.org/namespaces/inkscape"
   viewBox="0 0 53 53"
   width="53"
   height="53"
   version="1.1"
   id="svg27"
   sodipodi:docname="bg_whatsapp.svg"
   inkscape:version="0.92.5 (2060ec1f9f, 2020-04-08)">
  <metadata
     id="metadata31">
    <rdf:RDF>
      <cc:Work
         rdf:about="">
        <dc:format>image/svg+xml</dc:format>
        <dc:type
           rdf:resource="http://purl.org/dc/dcmitype/StillImage" />
      </cc:Work>
    </rdf:RDF>
  </metadata>
  <sodipodi:namedview
     pagecolor="#ffffff"
     bordercolor="#666666"
     borderopacity="1"
     objecttolerance="10"
     gridtolerance="10"
     guidetolerance="10"
     inkscape:pageopacity="0"
     inkscape:pageshadow="2"
     inkscape:window-width="2560"
     inkscape:window-height="1052"
     id="namedview29"
     showgrid="false"
     inkscape:zoom="12.594506"
     inkscape:cx="27.926952"
     inkscape:cy="29.064192"
     inkscape:window-x="1366"
     inkscape:window-y="0"
     inkscape:window-maximized="1"
     inkscape:current-layer="svg27" />
  <defs
     id="defs3">
    <circle
       id="camera-SVGID_1_"
       cx="26.5"
       cy="26.5"
       r="25.5" />
  </defs>
  <clipPath
     id="camera-SVGID_2_">
    <use
       xlink:href="#camera-SVGID_1_"
       overflow="visible"
       id="use5" />
  </clipPath>
  <g
     clip-path="url(#camera-SVGID_2_)"
     id="g20">
    <path
       fill="#4E5DA9"
       d="M33.7 33.7l-6.9-.3-11.9 18.4c5.9 3.6 19.8 4.4 28.8-3.2L35 32.8c-.3.2-.8.9-1.3.9z"
       id="path8" />
    <path
       fill="#92C654"
       d="M19.2 33.7c-1 0-1.8-.8-1.8-1.8v-1.6l-19-.5c.1 12 8.7 20 17.4 23.5l11.3-19.5h-7.9z"
       id="path10" />
    <path
       fill="#FEC226"
       d="M17.4 21.1c0-.9 1-1.8 1.9-1.9L10.9 4.1C4.2 7.1-1.8 16.9-1.7 30.9h19.1v-9.8z"
       id="path12" />

  </g>
</svg>
